<svg id="Capa_1" enable-background="new 0 0 510.054 510.054" height="512" viewBox="0 0 510.054 510.054" width="512" xmlns="http://www.w3.org/2000/svg"><g><ellipse cx="254.997" cy="254.997" fill="#f1f6ff" rx="240.003" ry="240.009" transform="matrix(.707 -.707 .707 .707 -105.623 254.997)"/><path d="m254.997 495.003c-66.277-.007-126.275-26.87-169.706-70.301l339.412-339.411c43.431 43.431 70.294 103.429 70.301 169.706-.008 132.547-107.46 239.999-240.007 240.006z" fill="#dfe5f2"/><g><path d="m239.997 14.997h30v80h-30z" fill="#8cbcff"/></g><g><path d="m239.997 414.997h30v80h-30z" fill="#7c84e8"/></g><g><path d="m14.997 239.997h80v30h-80z" fill="#8cbcff"/></g><g><path d="m414.997 239.997h80v30h-80z" fill="#7c84e8"/></g><path d="m432.977 77.017c0 .1-73.394 171.509-107.93 252.32-91.361-88.459-58.644-56.779-147.67-142.99z" fill="#ff415b"/><path d="m432.967 77.037c-5.453 12.735-105.575 246.813-107.92 252.3l-73.36-71.03z" fill="#c83c50"/><path d="m331.927 323.967-256.21 110.31 110.75-257.23c8.23 8.23 137.429 138.908 145.46 146.92z" fill="#8cbcff"/><path d="m331.927 323.967-256.21 110.31 183.62-183.62c34.23 34.59 68.39 69.12 72.59 73.31z" fill="#7c84e8"/><path d="m509.994 254.997c.014-140.906-114.041-255.012-254.997-254.997-140.906-.015-255.011 114.041-254.997 254.997-.014 140.907 114.042 255.011 254.997 254.997 140.906.014 255.011-114.042 254.997-254.997zm-254.997 225.001c-124.087 0-225.001-100.943-225.001-225.001 0-124.069 100.932-225.001 225.001-225.001 124.087 0 225.001 100.943 225.001 225.001 0 124.069-100.932 225.001-225.001 225.001z" fill="#c47e4e"/><path d="m435.309 435.309c-99.658 99.658-260.962 99.663-360.624 0l21.284-21.284c40.743 40.743 97.001 65.973 159.028 65.973 124.069 0 225.001-100.932 225.001-225.001 0-62.027-25.23-118.285-65.973-159.028l21.284-21.284c99.658 99.658 99.663 260.961 0 360.624z" fill="#a05f4b"/><path d="m341.197 330.55-6.562 13.277c-113.64-98.501-72.644-60.622-178.244-166.223l21.213-21.213c105.606 105.605 68.406 65.667 163.593 174.159z" fill="#c47e4e"/><path d="m283.997 236.772h30v124.45h-30z" fill="#a05f4b" transform="matrix(.707 -.707 .707 .707 -123.848 298.997)"/></g></svg>