<?xml version="1.0"?>
<svg xmlns="http://www.w3.org/2000/svg" xmlns:xlink="http://www.w3.org/1999/xlink" xmlns:svgjs="http://svgjs.com/svgjs" version="1.1" width="512" height="512" x="0" y="0" viewBox="0 0 399.386 399.386" style="enable-background:new 0 0 512 512" xml:space="preserve" class=""><g>
<circle xmlns="http://www.w3.org/2000/svg" style="" cx="199.693" cy="238.61" r="157.026" fill="#e9e9e9" data-original="#fdbf5e" class=""/>
<path xmlns="http://www.w3.org/2000/svg" style="" d="M336.291,142.804c0,75.442-136.598,246.626-136.598,246.626S63.095,218.246,63.095,142.804  S124.251,6.206,199.693,6.206S336.291,67.426,336.291,142.804z" fill="#ffffff" data-original="#ffffff" class=""/>
<path xmlns="http://www.w3.org/2000/svg" style="" d="M199.693,399.386l-4.913-6.206c-5.624-6.788-137.891-173.705-137.891-250.376  C56.889,64.323,121.147,0,199.693,0s142.804,64.323,142.804,142.804c0,76.671-132.267,243.588-137.826,250.376L199.693,399.386z   M199.693,12.412C128,12.412,69.236,71.111,69.236,142.869c0,64.259,106.343,205.253,130.457,236.735  c24.113-30.901,130.457-171.83,130.457-236.735C330.149,71.111,271.386,12.412,199.693,12.412z" fill="#193651" data-original="#193651" class=""/>
<path xmlns="http://www.w3.org/2000/svg" style="" d="M199.693,349.285C150.238,283.151,87.79,186.117,87.79,142.804  c0-61.802,50.101-111.903,111.903-111.903s111.903,50.101,111.903,111.903C311.596,185.471,249.147,283.151,199.693,349.285z" fill="#9234e9" data-original="#f16051" class=""/>
<circle xmlns="http://www.w3.org/2000/svg" style="" cx="199.693" cy="142.804" r="50.101" fill="#ffffff" data-original="#ffffff" class=""/>
<g xmlns="http://www.w3.org/2000/svg">
	<path style="" d="M199.693,199.046c-30.901,0-56.242-25.341-56.242-56.242s25.341-56.242,56.242-56.242   s56.242,25.341,56.242,56.242S230.594,199.046,199.693,199.046z M199.693,98.909c-24.113,0-43.895,19.782-43.895,43.895   s19.782,43.895,43.895,43.895s43.895-19.782,43.895-43.895S223.806,98.909,199.693,98.909z" fill="#193651" data-original="#193651" class=""/>
	<rect x="166.917" y="252.832" style="" width="12.347" height="12.347" fill="#193651" data-original="#193651" class=""/>
	<rect x="193.487" y="252.832" style="" width="12.347" height="12.347" fill="#193651" data-original="#193651" class=""/>
	<rect x="220.121" y="252.832" style="" width="12.347" height="12.347" fill="#193651" data-original="#193651" class=""/>
</g>
<g xmlns="http://www.w3.org/2000/svg">
</g>
<g xmlns="http://www.w3.org/2000/svg">
</g>
<g xmlns="http://www.w3.org/2000/svg">
</g>
<g xmlns="http://www.w3.org/2000/svg">
</g>
<g xmlns="http://www.w3.org/2000/svg">
</g>
<g xmlns="http://www.w3.org/2000/svg">
</g>
<g xmlns="http://www.w3.org/2000/svg">
</g>
<g xmlns="http://www.w3.org/2000/svg">
</g>
<g xmlns="http://www.w3.org/2000/svg">
</g>
<g xmlns="http://www.w3.org/2000/svg">
</g>
<g xmlns="http://www.w3.org/2000/svg">
</g>
<g xmlns="http://www.w3.org/2000/svg">
</g>
<g xmlns="http://www.w3.org/2000/svg">
</g>
<g xmlns="http://www.w3.org/2000/svg">
</g>
<g xmlns="http://www.w3.org/2000/svg">
</g>
</g></svg>
